<html>
<head>
<meta charset="UTF-8">
<meta name="viewport" content="width=device-width, initial-scale=1.0"/>

<style>
.comment
{
    padding-left: 20px;
    margin-top: 4px;
    margin-right: 4px;
    margin-bottom: 4px;
    border: 2px #000 solid;
}
.submission
{
    border: 4px #00f solid;
    padding-left: 20px;
}
.hidden
{
    display: none;
}
</style>
</head>
<body><div class="submission" id="t3_679k9i">
    <p class="userinfo">
        <a href="https://www.reddit.com/u/vcdupper">vcdupper</a>
        <span class="score"> | 31 points</span>
        <span class="timestamp"> | Apr 24 2017 14:59:57</span>
    </p>
    <strong>[MOVIE] Titanic.1997.1080p.Bluray.x265.HEVC.10bit.AAC.5.1-Tigole [5.22GB]</strong>
    <p><p>Add mega<br>
.nz/#!gH4TWLBT<br>
!hLrJq1KA5I2gk6M3TjRvwquGt2pLQEi7wzEJIeiNutk  </p>
<hr>
<h3><a href="https://youtu.be/ixZnhA7Wmq4">Unsure How To Download?</a>  &lt;------CLICK HERE!!!</h3>
<hr>
<p>General:<br>
Format : Matroska<br>
Format version : Version 4 / Version 2<br>
File size : 5.22 GiB<br>
Duration : 3 h 14 min<br>
Overall bit rate : 3 834 kb/s<br>
Movie name : Titanic<br>
Encoded date : UTC 2017-04-01 01:13:22<br>
Writing application : mkvmerge v9.6.0 (\'Slave To Your Mind\') 64bit<br>
Writing library : libebml v1.3.4 + libmatroska v1.4.5  </p>
<p>Video<br>
ID : 1<br>
Format : HEVC<br>
Format/Info : High Efficiency Video Coding<br>
Format profile : Main 10@L4@Main<br>
Codec ID : V_MPEGH/ISO/HEVC<br>
Duration : 3 h 14 min<br>
Bit rate : 3 210 kb/s<br>
Width : 1 920 pixels<br>
Height : 820 pixels<br>
Display aspect ratio : 2.35:1<br>
Frame rate mode : Constant<br>
Frame rate : 23.976 (24000/1001) FPS<br>
Color space : YUV<br>
Chroma subsampling : 4:2:0<br>
Bit depth : 10 bits<br>
Bits/(Pixel*Frame) : 0.085<br>
Stream size : 4.37 GiB (84%)<br>
Writing library : x265 2.3+22-db5e22b856f5:[Windows][GCC 6.3.0][64 bit] 10bit<br>
Default : Yes<br>
Forced : No  </p>
<p>Audio #1<br>
ID : 2<br>
Format : AAC<br>
Format/Info : Advanced Audio Codec<br>
Format profile : LC<br>
Codec ID : A_AAC<br>
Duration : 3 h 14 min<br>
Bit rate : 353 kb/s<br>
Channel(s) : 6 channels<br>
Channel positions : Front: L C R, Side: L R, LFE<br>
Sampling rate : 48.0 kHz<br>
Frame rate : 46.875 FPS (1024 spf)<br>
Compression mode : Lossy<br>
Delay relative to video : 20 ms<br>
Stream size : 483 MiB (9%)<br>
Language : English<br>
Default : Yes<br>
Forced : No  </p>
<p>Audio #2<br>
ID : 3<br>
Format : AAC<br>
Format/Info : Advanced Audio Codec<br>
Format profile : HE-AAC / LC<br>
Codec ID : A_AAC<br>
Duration : 3 h 14 min<br>
Bit rate : 66.2 kb/s<br>
Channel(s) : 2 channels<br>
Channel positions : Front: L R<br>
Sampling rate : 48.0 kHz / 24.0 kHz<br>
Frame rate : 23.438 FPS (1024 spf)<br>
Compression mode : Lossy<br>
Delay relative to video : 40 ms<br>
Stream size : 91.8 MiB (2%)<br>
Title : Commentary 1<br>
Language : English<br>
Default : No<br>
Forced : No  </p>
<p>Audio #3<br>
ID : 4<br>
Format : AAC<br>
Format/Info : Advanced Audio Codec<br>
Format profile : HE-AAC / LC<br>
Codec ID : A_AAC<br>
Duration : 3 h 14 min<br>
Bit rate : 66.2 kb/s<br>
Channel(s) : 2 channels<br>
Channel positions : Front: L R<br>
Sampling rate : 48.0 kHz / 24.0 kHz<br>
Frame rate : 23.438 FPS (1024 spf)<br>
Compression mode : Lossy<br>
Delay relative to video : 40 ms<br>
Stream size : 91.7 MiB (2%)<br>
Title : Commentary 2<br>
Language : English<br>
Default : No<br>
Forced : No  </p>
<p>Audio #4<br>
ID : 5<br>
Format : AAC<br>
Format/Info : Advanced Audio Codec<br>
Format profile : HE-AAC / LC<br>
Codec ID : A_AAC<br>
Duration : 3 h 14 min<br>
Bit rate : 69.7 kb/s<br>
Channel(s) : 2 channels<br>
Channel positions : Front: L R<br>
Sampling rate : 48.0 kHz / 24.0 kHz<br>
Frame rate : 23.438 FPS (1024 spf)<br>
Compression mode : Lossy<br>
Delay relative to video : 40 ms<br>
Stream size : 97.2 MiB (2%)<br>
Title : Commentary 3<br>
Language : English<br>
Default : No<br>
Forced : No   </p>
<p>Text #1<br>
ID : 6<br>
Format : VobSub<br>
Muxing mode : zlib<br>
Codec ID : S_VOBSUB<br>
Codec ID/Info : Picture based subtitle format used on DVDs<br>
Duration : 3 h 12 min<br>
Bit rate : 2 629 b/s<br>
Count of elements : 2104<br>
Stream size : 3.63 MiB (0%)<br>
Language : English<br>
Default : No<br>
Forced : No  </p>
<p>Text #2<br>
ID : 7<br>
Format : VobSub<br>
Muxing mode : zlib<br>
Codec ID : S_VOBSUB<br>
Codec ID/Info : Picture based subtitle format used on DVDs<br>
Duration : 3 h 12 min<br>
Bit rate : 341 b/s<br>
Count of elements : 392<br>
Stream size : 483 KiB (0%)<br>
Title : Commentary 2<br>
Language : English<br>
Default : No<br>
Forced : No  </p>
<p>Text #3<br>
ID : 8<br>
Format : VobSub<br>
Muxing mode : zlib<br>
Codec ID : S_VOBSUB<br>
Codec ID/Info : Picture based subtitle format used on DVDs<br>
Duration : 3 h 12 min<br>
Bit rate : 2 724 b/s<br>
Count of elements : 2027<br>
Stream size : 3.76 MiB (0%)<br>
Language : Dutch<br>
Default : No<br>
Forced : No  </p>
<p>Text #4<br>
ID : 9<br>
Format : VobSub<br>
Muxing mode : zlib<br>
Codec ID : S_VOBSUB<br>
Codec ID/Info : Picture based subtitle format used on DVDs<br>
Duration : 3 h 14 min<br>
Bit rate : 6 369 b/s<br>
Count of elements : 3340<br>
Stream size : 8.86 MiB (0%)<br>
Title : Commentary 1<br>
Language : Dutch<br>
Default : No<br>
Forced : No  </p>
<p>Text #5<br>
ID : 10<br>
Format : VobSub<br>
Muxing mode : zlib<br>
Codec ID : S_VOBSUB<br>
Codec ID/Info : Picture based subtitle format used on DVDs<br>
Duration : 3 h 14 min<br>
Bit rate : 7 017 b/s<br>
Count of elements : 3541<br>
Stream size : 9.77 MiB (0%)<br>
Title : Commentary 2<br>
Language : Dutch<br>
Default : No<br>
Forced : No  </p>
<p>Text #6<br>
ID : 11<br>
Format : VobSub<br>
Muxing mode : zlib<br>
Codec ID : S_VOBSUB<br>
Codec ID/Info : Picture based subtitle format used on DVDs<br>
Duration : 3 h 14 min<br>
Bit rate : 6 605 b/s<br>
Count of elements : 3787<br>
Stream size : 9.20 MiB (0%)<br>
Title : Commentary 3<br>
Language : Dutch<br>
Default : No<br>
Forced : No  </p>
<p>Text #7<br>
ID : 12<br>
Format : VobSub<br>
Muxing mode : zlib<br>
Codec ID : S_VOBSUB<br>
Codec ID/Info : Picture based subtitle format used on DVDs<br>
Duration : 3 h 12 min<br>
Bit rate : 2 065 b/s<br>
Count of elements : 1616<br>
Stream size : 2.85 MiB (0%)<br>
Language : French<br>
Default : No<br>
Forced : No  </p>
<p>Text #8<br>
ID : 13<br>
Format : VobSub<br>
Muxing mode : zlib<br>
Codec ID : S_VOBSUB<br>
Codec ID/Info : Picture based subtitle format used on DVDs<br>
Duration : 3 h 14 min<br>
Bit rate : 6 182 b/s<br>
Count of elements : 3340<br>
Stream size : 8.60 MiB (0%)<br>
Title : Commentary 1<br>
Language : French<br>
Default : No<br>
Forced : No  </p>
<p>Text #9<br>
ID : 14<br>
Format : VobSub<br>
Muxing mode : zlib<br>
Codec ID : S_VOBSUB<br>
Codec ID/Info : Picture based subtitle format used on DVDs<br>
Duration : 3 h 14 min<br>
Bit rate : 6 943 b/s<br>
Count of elements : 3541<br>
Stream size : 9.67 MiB (0%)<br>
Title : Commentary 2<br>
Language : French<br>
Default : No<br>
Forced : No  </p>
<p>Text #10<br>
ID : 15<br>
Format : VobSub<br>
Muxing mode : zlib<br>
Codec ID : S_VOBSUB<br>
Codec ID/Info : Picture based subtitle format used on DVDs<br>
Duration : 3 h 14 min<br>
Bit rate : 6 878 b/s<br>
Count of elements : 3787<br>
Stream size : 9.58 MiB (0%)<br>
Title : Commentary 3<br>
Language : French<br>
Default : No<br>
Forced : No   </p>
<p>Text #11<br>
ID : 16<br>
Format : VobSub<br>
Muxing mode : zlib<br>
Codec ID : S_VOBSUB<br>
Codec ID/Info : Picture based subtitle format used on DVDs<br>
Duration : 3 h 12 min<br>
Bit rate : 2 887 b/s<br>
Count of elements : 2026<br>
Stream size : 3.98 MiB (0%)<br>
Language : German<br>
Default : No<br>
Forced : No  </p>
<p>Text #12<br>
ID : 17<br>
Format : VobSub<br>
Muxing mode : zlib<br>
Codec ID : S_VOBSUB<br>
Codec ID/Info : Picture based subtitle format used on DVDs<br>
Duration : 2 h 50 min<br>
Bit rate : 6 b/s<br>
Count of elements : 4<br>
Stream size : 7.69 KiB (0%)<br>
Title : Forced<br>
Language : German<br>
Default : No<br>
Forced : No  </p>
<p>Text #13<br>
ID : 18<br>
Format : VobSub<br>
Muxing mode : zlib<br>
Codec ID : S_VOBSUB<br>
Codec ID/Info : Picture based subtitle format used on DVDs<br>
Duration : 3 h 14 min<br>
Bit rate : 6 546 b/s<br>
Count of elements : 3340<br>
Stream size : 9.10 MiB (0%)<br>
Title : Commentary 1<br>
Language : German<br>
Default : No<br>
Forced : No  </p>
<p>Text #14<br>
ID : 19<br>
Format : VobSub<br>
Muxing mode : zlib<br>
Codec ID : S_VOBSUB<br>
Codec ID/Info : Picture based subtitle format used on DVDs<br>
Duration : 3 h 14 min<br>
Bit rate : 7 288 b/s<br>
Count of elements : 3541<br>
Stream size : 10.1 MiB (0%)<br>
Title : Commentary 2<br>
Language : German<br>
Default : No<br>
Forced : No  </p>
<p>Text #15<br>
ID : 20<br>
Format : VobSub<br>
Muxing mode : zlib<br>
Codec ID : S_VOBSUB<br>
Codec ID/Info : Picture based subtitle format used on DVDs<br>
Duration : 3 h 14 min<br>
Bit rate : 7 231 b/s<br>
Count of elements : 3787<br>
Stream size : 10.1 MiB (0%)<br>
Title : Commentary 3<br>
Language : German<br>
Default : No<br>
Forced : No  </p></p>
    <p class="toolbar">
        <a href="https://www.reddit.com/r/megalinks/comments/679k9i">permalink</a>
    </p>
</div>
<div class="comment" id="t1_dgpvs7y">
    <p class="userinfo">
        <a
        class="toggle_hide_button"
        href="javascript:void(0)"
        onclick="toggle_collapse(this.parentElement.parentElement)">[-]
        </a>
        <a href="https://www.reddit.com/u/wudichao_China">wudichao_China</a>
        <span class="score"> | 4 points</span>
        <span class="timestamp"> | Apr 25 2017 06:30:15</span>
    </p>
    <div class="collapsible">
        <p>tks :P</p>
        <p class="toolbar">
            <a href="https://www.reddit.com/r/megalinks/comments/679k9i/_/dgpvs7y">permalink</a>
        </p>
        
    </div>
</div>

<div class="comment" id="t1_dgooall">
    <p class="userinfo">
        <a
        class="toggle_hide_button"
        href="javascript:void(0)"
        onclick="toggle_collapse(this.parentElement.parentElement)">[-]
        </a>
        <a href="https://www.reddit.com/u/boltrop">boltrop</a>
        <span class="score"> | 1 points</span>
        <span class="timestamp"> | Apr 24 2017 15:02:07</span>
    </p>
    <div class="collapsible">
        <h3><a href="https://images-na.ssl-images-amazon.com/images/M/MV5BMDdmZGU3NDQtY2E5My00ZTliLWIzOTUtMTY4ZGI1YjdiNjk3XkEyXkFqcGdeQXVyNTA4NzY1MzY@._V1_.jpg">Titanic</a> (1997)</h3>
<p><strong>Genre</strong>: Drama, Romance</p>
<p><strong>Rating</strong>:  7.7 (839625 votes)</p>
<p><strong>Certification</strong>: PG-13</p>
<p><strong>Runtime</strong>: 194 min</p>
<hr>
<blockquote>
<p><strong>Director(s)</strong>: <a href="https://www.imdb.com/name/nm0000116/">James Cameron</a></p>
<p><strong>Writer(s)</strong>: <a href="https://www.imdb.com/name/nm0000116/">James Cameron</a></p>
<p><strong>Cast</strong>: <a href="https://www.imdb.com/name/nm0000138/">Leonardo DiCaprio</a>, <a href="https://www.imdb.com/name/nm0000701/">Kate Winslet</a>, <a href="https://www.imdb.com/name/nm0000708/">Billy Zane</a>, <a href="https://www.imdb.com/name/nm0000870/">Kathy Bates</a></p>
<p><strong>Plot</strong>: A seventeen-year-old aristocrat falls in love with a kind but poor artist aboard the luxurious, ill-fated R.M.S. Titanic.</p>
</blockquote>
<hr>
<p>^This ^summary ^is ^taken ^from <a href="https://www.imdb.com/title/tt0120338/">^imdb.com</a> ^| ^For ^feedback ^or ^suggestions ^contact <a href="http://www.reddit.com/message/compose/?to=indigo6alpha">^/u/indigo6alpha</a></p>
        <p class="toolbar">
            <a href="https://www.reddit.com/r/megalinks/comments/679k9i/_/dgooall">permalink</a>
        </p>
        
    </div>
</div>

<div class="comment" id="t1_dgoocbl">
    <p class="userinfo">
        <a
        class="toggle_hide_button"
        href="javascript:void(0)"
        onclick="toggle_collapse(this.parentElement.parentElement)">[-]
        </a>
        <a href="https://www.reddit.com/u/SubZorro">SubZorro</a>
        <span class="score"> | 1 points</span>
        <span class="timestamp"> | Apr 24 2017 15:03:04</span>
    </p>
    <div class="collapsible">
        <h5>Subtitles for this movie:</h5>
<hr>
<blockquote>
<ul>
<li>
<p><strong>Titanic 1997 TLF</strong> - <code>3 CD</code> - <a href="http://dl.opensubtitles.org/en/download/vrf-464ef9ef/sub/3106586">Download Subtitle</a></p>
</li>
<li>
<p><strong>Titanic.1997.BluRay</strong> - <code>1 CD</code> - <a href="http://dl.opensubtitles.org/en/download/vrf-5e293635/sub/4956344">Download Subtitle</a></p>
</li>
<li>
<p><strong>Titanic 1997 HDTVRip [A Release Lounge H264]</strong> - <code>1 CD</code> - <a href="http://dl.opensubtitles.org/en/download/vrf-eaa1f8e4/sub/4085583">Download Subtitle</a></p>
</li>
<li>
<p><strong>Titanic (1997).avi</strong> - <code>1 CD</code> - <a href="http://dl.opensubtitles.org/en/download/vrf-145d700c/sub/3637753">Download Subtitle</a></p>
</li>
</ul>
</blockquote>
<hr>
<p>^This ^list ^of ^subtitles ^are ^taken ^from <a href="http://www.opensubtitles.org">^opensubtitles.org</a> ^| ^For ^feedback ^or ^suggestions ^contact <a href="http://www.reddit.com/message/compose/?to=indigo6alpha">^/u/indigo6alpha</a></p>
        <p class="toolbar">
            <a href="https://www.reddit.com/r/megalinks/comments/679k9i/_/dgoocbl">permalink</a>
        </p>
        
    </div>
</div>
</body>

<script>
function toggle_collapse(comment_div)
{
    var button = comment_div.getElementsByClassName("toggle_hide_button")[0];
    var collapsible = comment_div.getElementsByClassName("collapsible")[0];
    if (collapsible.classList.contains("hidden"))
    {
        collapsible.classList.remove("hidden");
        button.innerText = "[-]";
    }
    else
    {
        collapsible.classList.add("hidden");
        button.innerText = "[+]";
    }
}
</script>
</html>
